Coordinates
version=1
nRows=12
nColumns=24
inDegrees=yes

Units are S.I. units (second, meters, Newtons, ...)
Angles are in degrees.

endheader
time	pelvis_tilt	pelvis_list	pelvis_rotation	pelvis_tx	pelvis_ty	pelvis_tz	hip_flexion_r	hip_adduction_r	hip_rotation_r	knee_angle_r	ankle_angle_r	subtalar_angle_r	mtp_angle_r	hip_flexion_l	hip_adduction_l	hip_rotation_l	knee_angle_l	ankle_angle_l	subtalar_angle_l	mtp_angle_l	lumbar_extension	lumbar_bending	lumbar_rotation
      1.10383333	     -0.17186295	      1.21135544	     -6.24802897	     -0.07794292	      0.99573312	      0.26240461	    -13.46916143	     -0.08309880	     -1.73428961	    -10.85882393	     14.58440642	     -1.24521803	      8.47983181	     20.54570602	      0.41224095	     -9.54637508	      5.21645716	      1.39581722	     -5.12276296	      7.12228309	     -2.92476679	     -0.52714440	     12.56024785
      1.10800000	     -0.15339191	      1.31106832	     -6.31153088	     -0.07210271	      0.99521846	      0.26207939	    -13.59625741	     -0.28398974	     -1.75417239	    -11.33609687	     14.63854222	     -1.11281163	      8.50485564	     20.53821712	      0.54923555	     -9.44164944	      4.95740053	      1.42236152	     -5.45786987	      7.16444546	     -2.89456113	     -0.66323528	     12.68650842
      1.11216667	     -0.12271483	      1.42368555	     -6.37298050	     -0.06623135	      0.99474929	      0.26173469	    -13.71849882	     -0.50375753	     -1.80228326	    -11.84833820	     14.66744664	     -0.95956420	      8.55168452	     20.51641736	      0.70365620	     -9.31278918	      4.64379832	      1.38662333	     -5.86083658	      7.22510128	     -2.87193222	     -0.80151737	     12.81954688
      1.11633333	     -0.09972767	      1.55248860	     -6.44122519	     -0.06032475	      0.99430810	      0.26139915	    -13.81974334	     -0.73991083	     -1.82100387	    -12.38242774	     14.68454711	     -0.84444730	      8.61636609	     20.50560957	      0.87106969	     -9.17078159	      4.26741151	      1.33121093	     -6.26871574	      7.29440379	     -2.83595573	     -0.97655499	     12.93962851
      1.12050000	     -0.07510475	      1.70427225	     -6.51267088	     -0.05436379	      0.99390490	      0.26107456	    -13.91357853	     -1.00015161	     -1.81889179	    -12.93305384	     14.67915955	     -0.76729041	      8.68468538	     20.49004500	      1.06112167	     -9.01878533	      3.84610129	      1.27044408	     -6.66440743	      7.35775265	     -2.78728195	     -1.19439775	     13.04662655
      1.12466667	     -0.04055832	      1.85176269	     -6.57763219	     -0.04839387	      0.99354425	      0.26069975	    -13.99355873	     -1.26260887	     -1.86278604	    -13.53117220	     14.64115903	     -0.62062636	      8.79617920	     20.46082692	      1.25534711	     -8.82536508	      3.39834945	      1.08353770	     -7.16333672	      7.44896898	     -2.75924617	     -1.37057677	     13.18368975
      1.12883333	     -0.00896471	      2.01784078	     -6.64671589	     -0.04238199	      0.99321539	      0.26033775	    -14.05761919	     -1.54308926	     -1.88218363	    -14.15087141	     14.57639913	     -0.52721765	      8.93832261	     20.43161743	      1.46696893	     -8.61932909	      2.91941045	      0.88338639	     -7.65857468	      7.55575415	     -2.71715496	     -1.58651935	     13.29596263
      1.13300000	      0.01324638	      2.19390843	     -6.71891647	     -0.03633375	      0.99291284	      0.25997065	    -14.09215588	     -1.83461134	     -1.89733772	    -14.80546606	     14.48562763	     -0.44373736	      9.10029044	     20.41104427	      1.68789403	     -8.41533513	      2.41385082	      0.63807082	     -8.14719094	      7.66528230	     -2.65534640	     -1.81390517	     13.41070404
      1.13716667	      0.04685300	      2.38005981	     -6.78867203	     -0.03026068	      0.99265318	      0.25957912	    -14.11906369	     -2.14063930	     -1.92291786	    -15.49619029	     14.36094526	     -0.36311828	      9.29843463	     20.37406118	      1.92454253	     -8.19394555	      1.89673436	      0.34531211	     -8.66378510	      7.78724557	     -2.60493099	     -2.05099516	     13.52371583
      1.14133333	      0.07994633	      2.57356369	     -6.85618507	     -0.02416077	      0.99242862	      0.25917481	    -14.12635852	     -2.45437217	     -1.94635733	    -16.22094376	     14.20094644	     -0.29296403	      9.54087954	     20.33457189	      2.17096691	     -7.96023483	      1.36966022	      0.00896547	     -9.18857196	      7.92316009	     -2.55046543	     -2.29445347	     13.62716065
      1.14550000	      0.11548549	      2.77235645	     -6.92234545	     -0.01803987	      0.99224191	      0.25875244	    -14.11317274	     -2.77534704	     -1.97494809	    -16.98567248	     14.00292582	     -0.23720077	      9.82725054	     20.29118475	      2.42496125	     -7.73292241	      0.83191912	     -0.36355430	     -9.70243985	      8.06865226	     -2.49417632	     -2.54602349	     13.72508640
      1.14966667	      0.14839919	      2.97178011	     -6.96434069	     -0.01189855	      0.99208267	      0.25830626	    -14.09194224	     -3.08594221	     -1.99483722	    -17.75378291	     13.69400612	     -0.35086883	     13.98857502	     20.26159185	      2.68457693	     -7.49302466	      0.26250600	     -0.74289299	    -10.20897344	     10.03814423	     -2.43201784	     -2.80833609	     13.71464354
